<?xml version="1.0" encoding="utf-8" ?>
<svg baseProfile="full" height="100%" version="1.1" width="100%" xmlns="http://www.w3.org/2000/svg" xmlns:ev="http://www.w3.org/2001/xml-events" xmlns:xlink="http://www.w3.org/1999/xlink"><defs><marker id="arrow" markerHeight="10" markerUnits="strokeWidth" markerWidth="10" orient="auto" refX="1" refY="2"><path d="M0,0 L0,4 L2,2 z" fill="black" /></marker></defs><g class="node_u"><text fill="black" font-family="serif" font-size="10" x="5" y="14.0">u</text><rect fill="white" height="12" width="50.0" x="15" y="5.0" /><line stroke="black" stroke-dasharray="1 1" stroke-width="1" x1="15" x2="65.0" y1="11.0" y2="11.0" /><rect fill="blue" fill-opacity="0.4" height="12" width="7.5" x="17.5" y="5.0" /><rect fill="red" fill-opacity="0.4" height="9.0" width="7.5" x="45" y="6.5" /></g><g class="node_v"><text fill="black" font-family="serif" font-size="10" x="5" y="29.0">v</text><rect fill="white" height="12" width="50.0" x="15" y="20.0" /><line stroke="black" stroke-dasharray="1 1" stroke-width="1" x1="15" x2="65.0" y1="26.0" y2="26.0" /><rect fill="red" fill-opacity="0.4" height="9.0" width="50.0" x="15.0" y="21.5" /></g><g class="node_x"><text fill="black" font-family="serif" font-size="10" x="5" y="44.0">x</text><rect fill="white" height="12" width="50.0" x="15" y="35.0" /><line stroke="black" stroke-dasharray="1 1" stroke-width="1" x1="15" x2="65.0" y1="41.0" y2="41.0" /></g><g class="node_y"><text fill="black" font-family="serif" font-size="10" x="5" y="59.0">y</text><rect fill="white" height="12" width="50.0" x="15" y="50.0" /><line stroke="black" stroke-dasharray="1 5" stroke-width="1" x1="17.5" x2="40" y1="56.0" y2="56.0" /><line stroke="black" stroke-dasharray="1 5" stroke-width="1" x1="45" x2="65" y1="56.0" y2="56.0" /></g><g class="node_u" /><rect fill="green" fill-opacity="0.5" height="16.0" stroke="green" stroke-width="0" width="10" x="35" y="10.5" /><g class="link_u_v"><circle cx="22.5" cy="11.0" fill="black" r="2.4" /><circle cx="22.5" cy="26.0" fill="black" r="2.4" /><path d="M22.5 11.0 Q 23.5 18.5 22.5 26.0" fill-opacity="0." stroke="black" stroke-width="2" /><line stroke="black" stroke-width="2" x1="23.5" x2="45" y1="18.5" y2="18.5" /></g><g class="link_v_x"><circle cx="30" cy="26.0" fill="black" r="2.4" /><circle cx="30" cy="41.0" fill="black" r="2.4" /><line stroke="black" stroke-width="2" x1="30" x2="30" y1="26.0" y2="41.0" /><line stroke="black" stroke-width="2" x1="30.0" x2="40" y1="33.5" y2="33.5" /></g><polyline fill-opacity="0" points="20,11.0 25,11.0 25,26.0 35,26.0 35,41.0 60,41.0" stroke="yellow" stroke-opacity="0.7" stroke-width="1" /><polyline fill-opacity="0" points="20,56.0 25,56.0 25.5,41.0 35,41.0" stroke="pink" stroke-opacity="0.7" stroke-width="1" /><g class="link_u_v"><circle cx="20" cy="11.0" fill="black" r="2.4" /><circle cx="20" cy="26.0" fill="black" r="2.4" /><line stroke="black" stroke-width="2" x1="20" x2="20" y1="11.0" y2="26.0" /><line stroke="black" stroke-width="2" x1="20.0" x2="35" y1="15.8" y2="15.8" /></g><g class="link_u_v"><circle cx="40" cy="11.0" fill="black" r="2.4" /><circle cx="40" cy="26.0" fill="black" r="2.4" /><line stroke="black" stroke-width="2" x1="40" x2="40" y1="11.0" y2="26.0" /><line stroke="black" stroke-width="2" x1="40.0" x2="50" y1="18.5" y2="18.5" /></g><g class="link_v_x"><circle cx="30" cy="26.0" fill="black" r="2.4" /><circle cx="30" cy="41.0" fill="black" r="2.4" /><line stroke="black" stroke-width="2" x1="30" x2="30" y1="26.0" y2="41.0" /><line stroke="black" stroke-width="2" x1="30.0" x2="35" y1="33.5" y2="33.5" /></g><path d="M 33.5,54.0 L 37.5,58.0 M 37.5,54.0 L 33.5,58.0" fill="none" stroke="black" stroke-opacity="1.0" stroke-width="0.5" /><line stroke="black" stroke-width="1" x1="2.5" x2="2.5" y1="11.0" y2="41.0" /><line stroke="black" stroke-width="1" x1="1.5" x2="3.5" y1="11.0" y2="11.0" /><line stroke="black" stroke-width="1" x1="1.5" x2="3.5" y1="41.0" y2="41.0" /><line marker-end="url(#arrow)" stroke="black" stroke-width="1" x1="15" x2="65.0" y1="65.0" y2="65.0" /><line stroke="black" stroke-width="1" x1="15.5" x2="15.5" y1="65.0" y2="66.0" /><text fill="black" font-family="serif" font-size="5" x="14.05" y="70.5">0</text><line stroke="black" stroke-width="1" x1="25.5" x2="25.5" y1="65.0" y2="66.0" /><text fill="black" font-family="serif" font-size="5" x="24.05" y="70.5">a</text><line stroke="black" stroke-width="1" x1="35.5" x2="35.5" y1="65.0" y2="66.0" /><text fill="black" font-family="serif" font-size="5" x="34.05" y="70.5">4</text><line stroke="black" stroke-width="1" x1="45.5" x2="45.5" y1="65.0" y2="66.0" /><text fill="black" font-family="serif" font-size="5" x="44.05" y="70.5">b</text><line stroke="black" stroke-width="1" x1="55.5" x2="55.5" y1="65.0" y2="66.0" /><text fill="black" font-family="serif" font-size="5" x="54.05" y="70.5">8</text><line stroke="black" stroke-width="1" x1="28.0" x2="28.0" y1="65.0" y2="66.0" /><text fill="black" font-family="serif" font-size="5" x="26.55" y="70.5">c</text><line stroke="black" stroke-width="1" x1="40.5" x2="40.5" y1="65.0" y2="66.0" /><text fill="black" font-family="serif" font-size="5" x="39.05" y="70.5">t</text><text fill="black" font-family="serif" font-size="4.0" x="65.0" y="70.5">time</text><line stroke="black" stroke-dasharray="1 1" stroke-opacity="0.5" stroke-width="1" x1="35.5" x2="35.5" y1="5" y2="65.0" /><text font-family="serif" font-size="5" x="33.5" y="4.0">u</text></svg>