<?xml version="1.0" encoding="utf-8" ?>
<svg baseProfile="full" height="100%" version="1.1" width="100%" xmlns="http://www.w3.org/2000/svg" xmlns:ev="http://www.w3.org/2001/xml-events" xmlns:xlink="http://www.w3.org/1999/xlink"><defs><marker id="arrow" markerHeight="10" markerUnits="strokeWidth" markerWidth="10" orient="auto" refX="1" refY="2"><path d="M0,0 L0,4 L2,2 z" fill="black" /></marker></defs><g class="node_u"><text fill="black" font-family="serif" font-size="10" x="0" y="9.0">u</text><rect fill="white" height="12" width="50.0" x="10" y="0.0" /><line stroke="black" stroke-dasharray="1 1" stroke-width="1" x1="10" x2="60.0" y1="6.0" y2="6.0" /><rect fill="blue" fill-opacity="0.4" height="12" width="7.5" x="12.5" y="0.0" /><rect fill="red" fill-opacity="0.4" height="9.0" width="7.5" x="40" y="1.5" /></g><g class="node_v"><text fill="black" font-family="serif" font-size="10" x="0" y="24.0">v</text><rect fill="white" height="12" width="50.0" x="10" y="15.0" /><line stroke="black" stroke-dasharray="1 1" stroke-width="1" x1="10" x2="60.0" y1="21.0" y2="21.0" /><rect fill="red" fill-opacity="0.4" height="9.0" width="50.0" x="10.0" y="16.5" /></g><g class="node_x"><text fill="black" font-family="serif" font-size="10" x="0" y="39.0">x</text><rect fill="white" height="12" width="50.0" x="10" y="30.0" /><line stroke="black" stroke-dasharray="1 1" stroke-width="1" x1="10" x2="60.0" y1="36.0" y2="36.0" /></g><g class="node_y"><text fill="black" font-family="serif" font-size="10" x="0" y="54.0">y</text><rect fill="white" height="12" width="50.0" x="10" y="45.0" /><line stroke="black" stroke-dasharray="1 5" stroke-width="1" x1="12.5" x2="35" y1="51.0" y2="51.0" /><line stroke="black" stroke-dasharray="1 5" stroke-width="1" x1="40" x2="60" y1="51.0" y2="51.0" /></g><g class="node_u" /><rect fill="green" fill-opacity="0.5" height="16.0" stroke="green" stroke-width="0" width="10" x="30" y="5.5" /><g class="link_u_v"><circle cx="17.5" cy="6.0" fill="black" r="2.4" /><circle cx="17.5" cy="21.0" fill="black" r="2.4" /><path d="M17.5 6.0 Q 18.5 13.5 17.5 21.0" fill-opacity="0." stroke="black" stroke-width="2" /><line stroke="black" stroke-width="2" x1="18.5" x2="40" y1="13.5" y2="13.5" /></g><g class="link_v_x"><circle cx="25" cy="21.0" fill="black" r="2.4" /><circle cx="25" cy="36.0" fill="black" r="2.4" /><line stroke="black" stroke-width="2" x1="25" x2="25" y1="21.0" y2="36.0" /><line stroke="black" stroke-width="2" x1="25.0" x2="35" y1="28.5" y2="28.5" /></g><polyline fill-opacity="0" points="15,6.0 20,6.0 20,21.0 30,21.0 30,36.0 55,36.0" stroke="yellow" stroke-opacity="0.7" stroke-width="1" /><polyline fill-opacity="0" points="15,51.0 20,51.0 20.5,36.0 30,36.0" stroke="pink" stroke-opacity="0.7" stroke-width="1" /><g class="link_u_v"><circle cx="15" cy="6.0" fill="black" r="2.4" /><circle cx="15" cy="21.0" fill="black" r="2.4" /><line stroke="black" stroke-width="2" x1="15" x2="15" y1="6.0" y2="21.0" /><line stroke="black" stroke-width="2" x1="15.0" x2="30" y1="10.8" y2="10.8" /></g><g class="link_u_v"><circle cx="35" cy="6.0" fill="black" r="2.4" /><circle cx="35" cy="21.0" fill="black" r="2.4" /><line stroke="black" stroke-width="2" x1="35" x2="35" y1="6.0" y2="21.0" /><line stroke="black" stroke-width="2" x1="35.0" x2="45" y1="13.5" y2="13.5" /></g><g class="link_v_x"><circle cx="25" cy="21.0" fill="black" r="2.4" /><circle cx="25" cy="36.0" fill="black" r="2.4" /><line stroke="black" stroke-width="2" x1="25" x2="25" y1="21.0" y2="36.0" /><line stroke="black" stroke-width="2" x1="25.0" x2="30" y1="28.5" y2="28.5" /></g><line marker-end="url(#arrow)" stroke="black" stroke-width="1" x1="10" x2="60.0" y1="60.0" y2="60.0" /><line stroke="black" stroke-width="1" x1="10.5" x2="10.5" y1="60.0" y2="61.0" /><text fill="black" font-family="serif" font-size="5" x="9.05" y="65.5">0</text><line stroke="black" stroke-width="1" x1="20.5" x2="20.5" y1="60.0" y2="61.0" /><text fill="black" font-family="serif" font-size="5" x="19.05" y="65.5">a</text><line stroke="black" stroke-width="1" x1="30.5" x2="30.5" y1="60.0" y2="61.0" /><text fill="black" font-family="serif" font-size="5" x="29.05" y="65.5">4</text><line stroke="black" stroke-width="1" x1="40.5" x2="40.5" y1="60.0" y2="61.0" /><text fill="black" font-family="serif" font-size="5" x="39.05" y="65.5">b</text><line stroke="black" stroke-width="1" x1="50.5" x2="50.5" y1="60.0" y2="61.0" /><text fill="black" font-family="serif" font-size="5" x="49.05" y="65.5">8</text><line stroke="black" stroke-width="1" x1="23.0" x2="23.0" y1="60.0" y2="61.0" /><text fill="black" font-family="serif" font-size="5" x="21.55" y="65.5">c</text><line stroke="black" stroke-width="1" x1="35.5" x2="35.5" y1="60.0" y2="61.0" /><text fill="black" font-family="serif" font-size="5" x="34.05" y="65.5">t</text></svg>