<?xml version="1.0" encoding="utf-8" ?>
<svg baseProfile="full" height="100%" version="1.1" width="100%" xmlns="http://www.w3.org/2000/svg" xmlns:ev="http://www.w3.org/2001/xml-events" xmlns:xlink="http://www.w3.org/1999/xlink"><defs><marker id="arrow" markerHeight="10" markerUnits="strokeWidth" markerWidth="10" orient="auto" refX="1" refY="2"><path d="M0,0 L0,4 L2,2 z" fill="black" /></marker></defs><g class="node_u"><text fill="black" font-family="serif" font-size="18.0" x="12.0" y="47.2">u</text><rect fill="white" height="30" width="680.0" x="30.0" y="25.2" /><line stroke="black" stroke-dasharray="1 5" stroke-width="1" x1="30.0" x2="710.0" y1="40.2" y2="40.2" /></g><g class="node_x"><text fill="black" font-family="serif" font-size="18.0" x="12.0" y="84.7">x</text><rect fill="white" height="30" width="680.0" x="30.0" y="62.7" /><line stroke="black" stroke-dasharray="1 5" stroke-width="1" x1="30.0" x2="710.0" y1="77.7" y2="77.7" /></g><g class="node_v"><text fill="black" font-family="serif" font-size="18.0" x="12.0" y="122.2">v</text><rect fill="white" height="30" width="680.0" x="30.0" y="100.2" /><line stroke="black" stroke-dasharray="1 5" stroke-width="1" x1="30.0" x2="710.0" y1="115.2" y2="115.2" /></g><g class="node_y"><text fill="black" font-family="serif" font-size="18.0" x="12.0" y="159.7">y</text><rect fill="white" height="30" width="680.0" x="30.0" y="137.7" /><line stroke="black" stroke-dasharray="1 5" stroke-width="1" x1="30.0" x2="710.0" y1="152.7" y2="152.7" /></g><g class="node_w"><text fill="black" font-family="serif" font-size="18.0" x="12.0" y="197.2">w</text><rect fill="white" height="30" width="680.0" x="30.0" y="175.2" /><line stroke="black" stroke-dasharray="1 5" stroke-width="1" x1="30.0" x2="710.0" y1="190.2" y2="190.2" /></g><g class="link_u_x"><circle cx="70.0" cy="40.2" fill="black" r="6.0" /><circle cx="70.0" cy="77.7" fill="black" r="6.0" /><line stroke="black" stroke-width="2" x1="70.0" x2="70.0" y1="40.2" y2="77.7" /><line stroke="black" stroke-width="2" x1="70.0" x2="110.0" y1="58.95" y2="58.95" /></g><g class="link_u_x"><circle cx="390.0" cy="40.2" fill="black" r="6.0" /><circle cx="390.0" cy="77.7" fill="black" r="6.0" /><line stroke="black" stroke-width="2" x1="390.0" x2="390.0" y1="40.2" y2="77.7" /><line stroke="black" stroke-width="2" x1="390.0" x2="430.0" y1="58.95" y2="58.95" /></g><g class="link_x_v"><circle cx="150.0" cy="77.7" fill="black" r="6.0" /><circle cx="150.0" cy="115.2" fill="black" r="6.0" /><line stroke="black" stroke-width="2" x1="150.0" x2="150.0" y1="77.7" y2="115.2" /><line stroke="black" stroke-width="2" x1="150.0" x2="190.0" y1="96.45" y2="96.45" /></g><g class="link_x_v"><circle cx="470.0" cy="77.7" fill="black" r="6.0" /><circle cx="470.0" cy="115.2" fill="black" r="6.0" /><line stroke="black" stroke-width="2" x1="470.0" x2="470.0" y1="77.7" y2="115.2" /><line stroke="black" stroke-width="2" x1="470.0" x2="510.0" y1="96.45" y2="96.45" /></g><g class="link_v_y"><circle cx="230.0" cy="115.2" fill="black" r="6.0" /><circle cx="230.0" cy="152.7" fill="black" r="6.0" /><line stroke="black" stroke-width="2" x1="230.0" x2="230.0" y1="115.2" y2="152.7" /><line stroke="black" stroke-width="2" x1="230.0" x2="270.0" y1="133.95" y2="133.95" /></g><g class="link_v_y"><circle cx="550.0" cy="115.2" fill="black" r="6.0" /><circle cx="550.0" cy="152.7" fill="black" r="6.0" /><line stroke="black" stroke-width="2" x1="550.0" x2="550.0" y1="115.2" y2="152.7" /><line stroke="black" stroke-width="2" x1="550.0" x2="590.0" y1="133.95" y2="133.95" /></g><g class="link_y_w"><circle cx="310.0" cy="152.7" fill="black" r="6.0" /><circle cx="310.0" cy="190.2" fill="black" r="6.0" /><line stroke="black" stroke-width="2" x1="310.0" x2="310.0" y1="152.7" y2="190.2" /><line stroke="black" stroke-width="2" x1="310.0" x2="350.0" y1="171.45" y2="171.45" /></g><g class="link_y_w"><circle cx="630.0" cy="152.7" fill="black" r="6.0" /><circle cx="630.0" cy="190.2" fill="black" r="6.0" /><line stroke="black" stroke-width="2" x1="630.0" x2="630.0" y1="152.7" y2="190.2" /><line stroke="black" stroke-width="2" x1="630.0" x2="670.0" y1="171.45" y2="171.45" /></g><polyline fill-opacity="0" points="110.0,40.2 110.0,77.7 170.0,77.7 170.0,115.2 250.0,115.2 250.0,152.7 310.0,152.7 310.0,190.2" stroke="blue" stroke-opacity="0.7" stroke-width="2" /><polyline fill-opacity="0" points="430.0,40.2 430.0,77.7 490.0,77.7 490.0,115.2 570.0,115.2 570.0,152.7 630.0,152.7 630.0,190.2" stroke="green" stroke-opacity="0.7" stroke-width="2" /><path d="M 207.5,112.2 L 213.5,118.2 M 213.5,112.2 L 207.5,118.2" fill="none" stroke="#FF0000" stroke-opacity="1.0" stroke-width="1" /><line marker-end="url(#arrow)" stroke="black" stroke-width="1" x1="30.0" x2="710.0" y1="212.7" y2="212.7" /><line stroke="black" stroke-width="1.2" x1="30.5" x2="30.5" y1="212.7" y2="215.1" /><text fill="black" font-family="serif" font-size="12.0" x="30.5" y="226.6" /><line stroke="black" stroke-width="1.2" x1="110.5" x2="110.5" y1="212.7" y2="215.1" /><text fill="black" font-family="serif" font-size="12.0" x="107.3" y="226.6">2</text><line stroke="black" stroke-width="1.2" x1="310.5" x2="310.5" y1="212.7" y2="215.1" /><text fill="black" font-family="serif" font-size="12.0" x="307.3" y="226.6">7</text><line stroke="black" stroke-width="1.2" x1="430.5" x2="430.5" y1="212.7" y2="215.1" /><text fill="black" font-family="serif" font-size="12.0" x="424.1" y="226.6">10</text><line stroke="black" stroke-width="1.2" x1="630.5" x2="630.5" y1="212.7" y2="215.1" /><text fill="black" font-family="serif" font-size="12.0" x="624.1" y="226.6">15</text><line stroke="black" stroke-width="1.2" x1="150.5" x2="150.5" y1="212.7" y2="215.1" /><text fill="black" font-family="serif" font-size="12.0" x="147.3" y="226.6">a</text><line stroke="black" stroke-width="1.2" x1="190.5" x2="190.5" y1="212.7" y2="215.1" /><text fill="black" font-family="serif" font-size="12.0" x="187.3" y="226.6">b</text><line stroke="black" stroke-width="1.2" x1="230.5" x2="230.5" y1="212.7" y2="215.1" /><text fill="black" font-family="serif" font-size="12.0" x="227.3" y="226.6">c</text><line stroke="black" stroke-width="1.2" x1="270.5" x2="270.5" y1="212.7" y2="215.1" /><text fill="black" font-family="serif" font-size="12.0" x="267.3" y="226.6">d</text><line stroke="black" stroke-width="1.2" x1="470.5" x2="470.5" y1="212.7" y2="215.1" /><text fill="black" font-family="serif" font-size="12.0" x="467.3" y="226.6">e</text><line stroke="black" stroke-width="1.2" x1="510.5" x2="510.5" y1="212.7" y2="215.1" /><text fill="black" font-family="serif" font-size="12.0" x="507.3" y="226.6">f</text><line stroke="black" stroke-width="1.2" x1="550.5" x2="550.5" y1="212.7" y2="215.1" /><text fill="black" font-family="serif" font-size="12.0" x="547.3" y="226.6">g</text><line stroke="black" stroke-width="1.2" x1="590.5" x2="590.5" y1="212.7" y2="215.1" /><text fill="black" font-family="serif" font-size="12.0" x="587.3" y="226.6">h</text><text fill="black" font-family="serif" font-size="9.600000000000001" x="710.0" y="226.6">time</text></svg>