<?xml version="1.0" encoding="utf-8" ?>
<svg baseProfile="full" height="100%" version="1.1" width="100%" xmlns="http://www.w3.org/2000/svg" xmlns:ev="http://www.w3.org/2001/xml-events" xmlns:xlink="http://www.w3.org/1999/xlink"><defs><marker id="arrow" markerHeight="10" markerUnits="strokeWidth" markerWidth="10" orient="auto" refX="1" refY="2"><path d="M0,0 L0,4 L2,2 z" fill="black" /></marker></defs><g class="node_a"><text fill="black" font-family="serif" font-size="18.0" x="12.0" y="47.2">a</text><rect fill="white" height="30" width="520.0" x="30.0" y="25.2" /><circle cx="30.0" cy="40.2" fill="black" r="3.0" /><circle cx="70.0" cy="40.2" fill="black" r="3.0" /><circle cx="110.0" cy="40.2" fill="black" r="3.0" /><circle cx="150.0" cy="40.2" fill="black" r="3.0" /><circle cx="190.0" cy="40.2" fill="black" r="3.0" /><circle cx="230.0" cy="40.2" fill="black" r="3.0" /><circle cx="270.0" cy="40.2" fill="black" r="3.0" /><circle cx="310.0" cy="40.2" fill="black" r="3.0" /><circle cx="350.0" cy="40.2" fill="black" r="3.0" /><circle cx="390.0" cy="40.2" fill="black" r="3.0" /><circle cx="430.0" cy="40.2" fill="black" r="3.0" /><circle cx="470.0" cy="40.2" fill="black" r="3.0" /><circle cx="510.0" cy="40.2" fill="black" r="3.0" /><circle cx="550.0" cy="40.2" fill="black" r="3.0" /></g><g class="node_b"><text fill="black" font-family="serif" font-size="18.0" x="12.0" y="84.7">b</text><rect fill="white" height="30" width="520.0" x="30.0" y="62.7" /><circle cx="70.0" cy="77.7" fill="black" r="3.0" /><circle cx="110.0" cy="77.7" fill="black" r="3.0" /><circle cx="150.0" cy="77.7" fill="black" r="3.0" /><circle cx="190.0" cy="77.7" fill="black" r="3.0" /><circle cx="230.0" cy="77.7" fill="black" r="3.0" /><circle cx="310.0" cy="77.7" fill="black" r="3.0" /><circle cx="350.0" cy="77.7" fill="black" r="3.0" /><circle cx="390.0" cy="77.7" fill="black" r="3.0" /><circle cx="430.0" cy="77.7" fill="black" r="3.0" /><circle cx="470.0" cy="77.7" fill="black" r="3.0" /><circle cx="510.0" cy="77.7" fill="black" r="3.0" /><circle cx="550.0" cy="77.7" fill="black" r="3.0" /></g><g class="node_c"><text fill="black" font-family="serif" font-size="18.0" x="12.0" y="122.2">c</text><rect fill="white" height="30" width="520.0" x="30.0" y="100.2" /><circle cx="230.0" cy="115.2" fill="black" r="3.0" /><circle cx="270.0" cy="115.2" fill="black" r="3.0" /><circle cx="310.0" cy="115.2" fill="black" r="3.0" /><circle cx="350.0" cy="115.2" fill="black" r="3.0" /><circle cx="390.0" cy="115.2" fill="black" r="3.0" /><circle cx="430.0" cy="115.2" fill="black" r="3.0" /><circle cx="470.0" cy="115.2" fill="black" r="3.0" /><circle cx="510.0" cy="115.2" fill="black" r="3.0" /></g><g class="node_d"><text fill="black" font-family="serif" font-size="18.0" x="12.0" y="159.7">d</text><rect fill="white" height="30" width="520.0" x="30.0" y="137.7" /><circle cx="70.0" cy="152.7" fill="black" r="3.0" /><circle cx="110.0" cy="152.7" fill="black" r="3.0" /><circle cx="150.0" cy="152.7" fill="black" r="3.0" /></g><g class="link_a_b"><circle cx="70.0" cy="40.2" fill="black" r="6.0" /><circle cx="70.0" cy="77.7" fill="black" r="6.0" /><line stroke="black" stroke-width="2.4" x1="70.0" x2="70.0" y1="40.2" y2="77.7" /><circle cx="110.0" cy="40.2" fill="black" r="6.0" /><circle cx="110.0" cy="77.7" fill="black" r="6.0" /><line stroke="black" stroke-width="2.4" x1="110.0" x2="110.0" y1="40.2" y2="77.7" /><circle cx="150.0" cy="40.2" fill="black" r="6.0" /><circle cx="150.0" cy="77.7" fill="black" r="6.0" /><line stroke="black" stroke-width="2.4" x1="150.0" x2="150.0" y1="40.2" y2="77.7" /><circle cx="190.0" cy="40.2" fill="black" r="6.0" /><circle cx="190.0" cy="77.7" fill="black" r="6.0" /><line stroke="black" stroke-width="2.4" x1="190.0" x2="190.0" y1="40.2" y2="77.7" /></g><g class="link_a_b"><circle cx="390.0" cy="40.2" fill="black" r="6.0" /><circle cx="390.0" cy="77.7" fill="black" r="6.0" /><line stroke="black" stroke-width="2.4" x1="390.0" x2="390.0" y1="40.2" y2="77.7" /><circle cx="430.0" cy="40.2" fill="black" r="6.0" /><circle cx="430.0" cy="77.7" fill="black" r="6.0" /><line stroke="black" stroke-width="2.4" x1="430.0" x2="430.0" y1="40.2" y2="77.7" /></g><g class="link_a_c"><circle cx="270.0" cy="40.2" fill="black" r="6.0" /><circle cx="270.0" cy="115.2" fill="black" r="6.0" /><path d="M270.0 40.2 Q 286.0 77.7 270.0 115.2" fill="none" stroke="black" stroke-width="2.4" /><circle cx="310.0" cy="40.2" fill="black" r="6.0" /><circle cx="310.0" cy="115.2" fill="black" r="6.0" /><path d="M310.0 40.2 Q 326.0 77.7 310.0 115.2" fill="none" stroke="black" stroke-width="2.4" /><circle cx="350.0" cy="40.2" fill="black" r="6.0" /><circle cx="350.0" cy="115.2" fill="black" r="6.0" /><path d="M350.0 40.2 Q 366.0 77.7 350.0 115.2" fill="none" stroke="black" stroke-width="2.4" /><circle cx="390.0" cy="40.2" fill="black" r="6.0" /><circle cx="390.0" cy="115.2" fill="black" r="6.0" /><path d="M390.0 40.2 Q 406.0 77.7 390.0 115.2" fill="none" stroke="black" stroke-width="2.4" /></g><g class="link_b_d"><circle cx="110.0" cy="77.7" fill="black" r="6.0" /><circle cx="110.0" cy="152.7" fill="black" r="6.0" /><path d="M110.0 77.7 Q 126.0 115.19999999999999 110.0 152.7" fill="none" stroke="black" stroke-width="2.4" /><circle cx="150.0" cy="77.7" fill="black" r="6.0" /><circle cx="150.0" cy="152.7" fill="black" r="6.0" /><path d="M150.0 77.7 Q 166.0 115.19999999999999 150.0 152.7" fill="none" stroke="black" stroke-width="2.4" /></g><g class="link_b_c"><circle cx="350.0" cy="77.7" fill="black" r="6.0" /><circle cx="350.0" cy="115.2" fill="black" r="6.0" /><line stroke="black" stroke-width="2.4" x1="350.0" x2="350.0" y1="77.7" y2="115.2" /><circle cx="390.0" cy="77.7" fill="black" r="6.0" /><circle cx="390.0" cy="115.2" fill="black" r="6.0" /><line stroke="black" stroke-width="2.4" x1="390.0" x2="390.0" y1="77.7" y2="115.2" /><circle cx="430.0" cy="77.7" fill="black" r="6.0" /><circle cx="430.0" cy="115.2" fill="black" r="6.0" /><line stroke="black" stroke-width="2.4" x1="430.0" x2="430.0" y1="77.7" y2="115.2" /><circle cx="470.0" cy="77.7" fill="black" r="6.0" /><circle cx="470.0" cy="115.2" fill="black" r="6.0" /><line stroke="black" stroke-width="2.4" x1="470.0" x2="470.0" y1="77.7" y2="115.2" /><circle cx="510.0" cy="77.7" fill="black" r="6.0" /><circle cx="510.0" cy="115.2" fill="black" r="6.0" /><line stroke="black" stroke-width="2.4" x1="510.0" x2="510.0" y1="77.7" y2="115.2" /></g><path d="M70.0,72.9 L67.6,69.30000000000001 L72.4,69.30000000000001 z" fill="black" stroke="yellow" stroke-width="0.72" /><path d="M110.0,72.9 L107.6,69.30000000000001 L112.4,69.30000000000001 z" fill="black" stroke="yellow" stroke-width="0.72" /><path d="M150.0,72.9 L147.6,69.30000000000001 L152.4,69.30000000000001 z" fill="black" stroke="yellow" stroke-width="0.72" /><path d="M190.0,72.9 L187.6,69.30000000000001 L192.4,69.30000000000001 z" fill="black" stroke="yellow" stroke-width="0.72" /><line marker-end="url(#arrow)" stroke="black" stroke-width="1" x1="30.0" x2="550.0" y1="175.2" y2="175.2" /><line stroke="black" stroke-width="1.2" x1="30.5" x2="30.5" y1="175.2" y2="177.6" /><text fill="black" font-family="serif" font-size="12.0" x="27.3" y="189.1">0</text><line stroke="black" stroke-width="1.2" x1="110.5" x2="110.5" y1="175.2" y2="177.6" /><text fill="black" font-family="serif" font-size="12.0" x="107.3" y="189.1">2</text><line stroke="black" stroke-width="1.2" x1="190.5" x2="190.5" y1="175.2" y2="177.6" /><text fill="black" font-family="serif" font-size="12.0" x="187.3" y="189.1">4</text><line stroke="black" stroke-width="1.2" x1="270.5" x2="270.5" y1="175.2" y2="177.6" /><text fill="black" font-family="serif" font-size="12.0" x="267.3" y="189.1">6</text><line stroke="black" stroke-width="1.2" x1="350.5" x2="350.5" y1="175.2" y2="177.6" /><text fill="black" font-family="serif" font-size="12.0" x="347.3" y="189.1">8</text><line stroke="black" stroke-width="1.2" x1="430.5" x2="430.5" y1="175.2" y2="177.6" /><text fill="black" font-family="serif" font-size="12.0" x="424.1" y="189.1">10</text><line stroke="black" stroke-width="1.2" x1="510.5" x2="510.5" y1="175.2" y2="177.6" /><text fill="black" font-family="serif" font-size="12.0" x="504.1" y="189.1">12</text><text fill="black" font-family="serif" font-size="9.600000000000001" x="550.0" y="189.1">time</text></svg>