<?xml version="1.0" encoding="utf-8" ?>
<svg baseProfile="full" height="100%" version="1.1" width="100%" xmlns="http://www.w3.org/2000/svg" xmlns:ev="http://www.w3.org/2001/xml-events" xmlns:xlink="http://www.w3.org/1999/xlink"><defs /><g class="node_u"><text fill="black" font-family="serif" font-size="18.0" x="12.0" y="47.2">u</text><rect fill="white" height="30" width="400.0" x="30.0" y="25.2" /><circle cx="30.0" cy="40.2" fill="black" r="3.0" /><circle cx="90.0" cy="40.2" fill="black" r="3.0" /><circle cx="150.0" cy="40.2" fill="black" r="3.0" /><circle cx="210.0" cy="40.2" fill="black" r="3.0" /><circle cx="270.0" cy="40.2" fill="black" r="3.0" /><circle cx="330.0" cy="40.2" fill="black" r="3.0" /><circle cx="390.0" cy="40.2" fill="black" r="3.0" /><rect fill="blue" fill-opacity="0.4" height="200" width="60.0" x="50.0" y="-59.8" /><rect fill="#ff0000" fill-opacity="0.4" height="22.5" width="60.0" x="270.0" y="28.950000000000003" /></g><g class="node_v"><text fill="black" font-family="serif" font-size="18.0" x="12.0" y="84.7">v</text><rect fill="white" height="30" width="400.0" x="30.0" y="62.7" /><circle cx="30.0" cy="77.7" fill="black" r="3.0" /><circle cx="90.0" cy="77.7" fill="black" r="3.0" /><circle cx="150.0" cy="77.7" fill="black" r="3.0" /><circle cx="210.0" cy="77.7" fill="black" r="3.0" /><circle cx="270.0" cy="77.7" fill="black" r="3.0" /><circle cx="330.0" cy="77.7" fill="black" r="3.0" /><circle cx="390.0" cy="77.7" fill="black" r="3.0" /><rect fill="blue" fill-opacity="0.4" height="22.5" width="400.0" x="30.0" y="66.45" /></g><g class="node_x"><text fill="black" font-family="serif" font-size="18.0" x="12.0" y="122.2">x</text><rect fill="white" height="30" width="400.0" x="30.0" y="100.2" /><circle cx="30.0" cy="115.2" fill="black" r="3.0" /><circle cx="90.0" cy="115.2" fill="black" r="3.0" /><circle cx="150.0" cy="115.2" fill="black" r="3.0" /><circle cx="210.0" cy="115.2" fill="black" r="3.0" /><circle cx="270.0" cy="115.2" fill="black" r="3.0" /><circle cx="330.0" cy="115.2" fill="black" r="3.0" /><circle cx="390.0" cy="115.2" fill="black" r="3.0" /></g><g class="node_y"><text fill="black" font-family="serif" font-size="18.0" x="12.0" y="159.7">y</text><rect fill="white" height="30" width="400.0" x="30.0" y="137.7" /><circle cx="150.0" cy="152.7" fill="black" r="3.0" /><circle cx="210.0" cy="152.7" fill="black" r="3.0" /><circle cx="270.0" cy="152.7" fill="black" r="3.0" /></g><g class="link_u_v"><circle cx="90.0" cy="40.2" fill="black" r="6.0" /><circle cx="90.0" cy="77.7" fill="black" r="6.0" /><line stroke="black" stroke-width="2" x1="90.0" x2="90.0" y1="40.2" y2="77.7" /><circle cx="150.0" cy="40.2" fill="black" r="6.0" /><circle cx="150.0" cy="77.7" fill="black" r="6.0" /><line stroke="black" stroke-width="2" x1="150.0" x2="150.0" y1="40.2" y2="77.7" /><circle cx="210.0" cy="40.2" fill="black" r="6.0" /><circle cx="210.0" cy="77.7" fill="black" r="6.0" /><line stroke="black" stroke-width="2" x1="210.0" x2="210.0" y1="40.2" y2="77.7" /><circle cx="270.0" cy="40.2" fill="black" r="6.0" /><circle cx="270.0" cy="77.7" fill="black" r="6.0" /><line stroke="black" stroke-width="2" x1="270.0" x2="270.0" y1="40.2" y2="77.7" /></g><g class="link_u_x"><circle cx="90.0" cy="40.2" fill="black" r="6.0" /><circle cx="90.0" cy="115.2" fill="black" r="6.0" /><path d="M90.0 40.2 Q 98.0 77.7 90.0 115.2" fill="none" stroke="black" stroke-width="2" /></g><g class="link_v_y"><circle cx="90.0" cy="77.7" fill="black" r="6.0" /><circle cx="90.0" cy="152.7" fill="black" r="6.0" /><line stroke="black" stroke-width="2" x1="90.0" x2="90.0" y1="77.7" y2="152.7" /></g></svg>