<?xml version="1.0" encoding="utf-8" ?>
<svg baseProfile="full" height="100%" version="1.1" width="100%" xmlns="http://www.w3.org/2000/svg" xmlns:ev="http://www.w3.org/2001/xml-events" xmlns:xlink="http://www.w3.org/1999/xlink"><defs><marker id="arrow" markerHeight="10" markerUnits="strokeWidth" markerWidth="10" orient="auto" refX="1" refY="2"><path d="M0,0 L0,4 L2,2 z" fill="black" /></marker></defs><g class="node_a"><text fill="black" font-family="serif" font-size="18.0" x="12.0" y="47.2">a</text><rect fill="white" height="30" width="480.0" x="30.0" y="25.2" /><line stroke="black" stroke-dasharray="1 5" stroke-width="1" x1="30.0" x2="190.0" y1="40.2" y2="40.2" /></g><g class="node_b"><text fill="black" font-family="serif" font-size="18.0" x="12.0" y="84.7">b</text><rect fill="white" height="30" width="480.0" x="30.0" y="62.7" /><line stroke="black" stroke-dasharray="1 5" stroke-width="1" x1="110.0" x2="350.0" y1="77.7" y2="77.7" /><line stroke="black" stroke-dasharray="1 5" stroke-width="1" x1="430.0" x2="510.0" y1="77.7" y2="77.7" /></g><g class="node_c"><text fill="black" font-family="serif" font-size="18.0" x="12.0" y="122.2">c</text><rect fill="white" height="30" width="480.0" x="30.0" y="100.2" /><line stroke="black" stroke-dasharray="1 5" stroke-width="1" x1="110.0" x2="470.0" y1="115.2" y2="115.2" /></g><polyline fill-opacity="0" points="70.0,40.2 150.0,40.2 152.0,77.7 270.0,77.7 272.0,115.2 390.0,115.2 392.0,77.7 470.0,77.7" stroke="blue" stroke-opacity="0.7" stroke-width="3" /><line stroke="black" stroke-width="1" x1="30.5" x2="110.5" y1="11.7" y2="11.7" /><line stroke="black" stroke-width="1" x1="30.5" x2="30.5" y1="14.1" y2="9.299999999999999" /><line stroke="black" stroke-width="1" x1="110.5" x2="110.5" y1="14.1" y2="9.299999999999999" /><text font-family="serif" font-size="9.600000000000001" x="56.0" y="6.8999999999999995">g = 2</text><line marker-end="url(#arrow)" stroke="black" stroke-width="1" x1="30.0" x2="510.0" y1="137.7" y2="137.7" /><line stroke="black" stroke-width="1.2" x1="30.5" x2="30.5" y1="137.7" y2="140.1" /><text fill="black" font-family="serif" font-size="12.0" x="27.3" y="151.6">0</text><line stroke="black" stroke-width="1.2" x1="110.5" x2="110.5" y1="137.7" y2="140.1" /><text fill="black" font-family="serif" font-size="12.0" x="107.3" y="151.6">2</text><line stroke="black" stroke-width="1.2" x1="190.5" x2="190.5" y1="137.7" y2="140.1" /><text fill="black" font-family="serif" font-size="12.0" x="187.3" y="151.6">4</text><line stroke="black" stroke-width="1.2" x1="270.5" x2="270.5" y1="137.7" y2="140.1" /><text fill="black" font-family="serif" font-size="12.0" x="267.3" y="151.6">6</text><line stroke="black" stroke-width="1.2" x1="350.5" x2="350.5" y1="137.7" y2="140.1" /><text fill="black" font-family="serif" font-size="12.0" x="347.3" y="151.6">8</text><line stroke="black" stroke-width="1.2" x1="430.5" x2="430.5" y1="137.7" y2="140.1" /><text fill="black" font-family="serif" font-size="12.0" x="424.1" y="151.6">10</text><text fill="black" font-family="serif" font-size="9.600000000000001" x="510.0" y="151.6">time</text><line stroke="black" stroke-dasharray="1 1" stroke-opacity="0.5" stroke-width="1" x1="30.5" x2="30.5" y1="25.2" y2="137.7" /><text font-family="serif" font-size="12.0" x="28.5" y="24.2">a</text><line stroke="black" stroke-dasharray="1 1" stroke-opacity="0.5" stroke-width="1" x1="70.5" x2="70.5" y1="25.2" y2="137.7" /><text font-family="serif" font-size="12.0" x="68.5" y="24.2">t</text><line stroke="black" stroke-dasharray="1 1" stroke-opacity="0.5" stroke-width="1" x1="270.5" x2="270.5" y1="25.2" y2="137.7" /><text font-family="serif" font-size="12.0" x="268.5" y="24.2">t2</text><line stroke="black" stroke-dasharray="1 1" stroke-opacity="0.5" stroke-width="1" x1="390.5" x2="390.5" y1="25.2" y2="137.7" /><text font-family="serif" font-size="12.0" x="388.5" y="24.2">t3</text><line stroke="black" stroke-dasharray="1 1" stroke-opacity="0.5" stroke-width="1" x1="430.5" x2="430.5" y1="25.2" y2="137.7" /><text font-family="serif" font-size="12.0" x="428.5" y="24.2">w</text></svg>