<?xml version="1.0" encoding="utf-8" ?>
<svg baseProfile="full" height="100%" version="1.1" width="100%" xmlns="http://www.w3.org/2000/svg" xmlns:ev="http://www.w3.org/2001/xml-events" xmlns:xlink="http://www.w3.org/1999/xlink"><defs><marker id="arrow" markerHeight="10" markerUnits="strokeWidth" markerWidth="10" orient="auto" refX="1" refY="2"><path d="M0,0 L0,4 L2,2 z" fill="black" /></marker></defs><g class="node_a"><text fill="black" font-family="serif" font-size="18.0" x="12.0" y="47.2">a</text><rect fill="white" height="30" width="400.0" x="30.0" y="25.2" /><line stroke="black" stroke-dasharray="1 5" stroke-width="1" x1="30.0" x2="430.0" y1="40.2" y2="40.2" /></g><g class="node_b"><text fill="black" font-family="serif" font-size="18.0" x="12.0" y="84.7">b</text><rect fill="white" height="30" width="400.0" x="30.0" y="62.7" /><line stroke="black" stroke-dasharray="1 5" stroke-width="1" x1="30.0" x2="190.0" y1="77.7" y2="77.7" /><line stroke="black" stroke-dasharray="1 5" stroke-width="1" x1="230.0" x2="430.0" y1="77.7" y2="77.7" /></g><g class="node_c"><text fill="black" font-family="serif" font-size="18.0" x="12.0" y="122.2">c</text><rect fill="white" height="30" width="400.0" x="30.0" y="100.2" /><line stroke="black" stroke-dasharray="1 5" stroke-width="1" x1="190.0" x2="390.0" y1="115.2" y2="115.2" /></g><g class="node_d"><text fill="black" font-family="serif" font-size="18.0" x="12.0" y="159.7">d</text><rect fill="white" height="30" width="400.0" x="30.0" y="137.7" /><line stroke="black" stroke-dasharray="1 5" stroke-width="1" x1="70.0" x2="150.0" y1="152.7" y2="152.7" /></g><g class="link_a_b"><circle cx="70.0" cy="40.2" fill="black" r="6.0" /><circle cx="70.0" cy="77.7" fill="black" r="6.0" /><line stroke="black" stroke-width="2" x1="70.0" x2="70.0" y1="40.2" y2="77.7" /><line stroke="black" stroke-width="2" x1="70.0" x2="150.0" y1="58.95" y2="58.95" /></g><g class="link_b_d"><circle cx="110.0" cy="77.7" fill="black" r="6.0" /><circle cx="110.0" cy="152.7" fill="black" r="6.0" /><line stroke="black" stroke-width="2" x1="110.0" x2="110.0" y1="77.7" y2="152.7" /><line stroke="black" stroke-width="2" x1="110.0" x2="150.0" y1="115.19999999999999" y2="115.19999999999999" /></g><g class="link_a_c"><circle cx="210.0" cy="40.2" fill="black" r="6.0" /><circle cx="210.0" cy="115.2" fill="black" r="6.0" /><line stroke="black" stroke-width="2" x1="210.0" x2="210.0" y1="40.2" y2="115.2" /><line stroke="black" stroke-width="2" x1="210.0" x2="330.0" y1="67.2" y2="67.2" /></g><g class="link_a_b"><circle cx="310.0" cy="40.2" fill="black" r="6.0" /><circle cx="310.0" cy="77.7" fill="black" r="6.0" /><line stroke="black" stroke-width="2" x1="310.0" x2="310.0" y1="40.2" y2="77.7" /><line stroke="black" stroke-width="2" x1="310.0" x2="350.0" y1="58.95" y2="58.95" /></g><g class="link_b_c"><circle cx="270.0" cy="77.7" fill="black" r="6.0" /><circle cx="270.0" cy="115.2" fill="black" r="6.0" /><line stroke="black" stroke-width="2" x1="270.0" x2="270.0" y1="77.7" y2="115.2" /><line stroke="black" stroke-width="2" x1="270.0" x2="390.0" y1="96.45" y2="96.45" /></g><path d="M 67.5,149.7 L 73.5,155.7 M 73.5,149.7 L 67.5,155.7" fill="none" stroke="#FF9896" stroke-opacity="1.0" stroke-width="2" /><path d="M 387.5,112.2 L 393.5,118.2 M 393.5,112.2 L 387.5,118.2" fill="none" stroke="#FF9896" stroke-opacity="1.0" stroke-width="2" /><polyline fill-opacity="0" points="110.0,152.7 110.0,77.7 150.0,77.7 150.0,40.2 330.0,40.2 330.0,77.7 350.0,77.7 350.0,115.2" stroke="blue" stroke-opacity="0.7" stroke-width="3" /><line marker-end="url(#arrow)" stroke="black" stroke-width="1" x1="30.0" x2="430.0" y1="175.2" y2="175.2" /><line stroke="black" stroke-width="1.2" x1="30.5" x2="30.5" y1="175.2" y2="177.6" /><text fill="black" font-family="serif" font-size="12.0" x="27.3" y="189.1">0</text><line stroke="black" stroke-width="1.2" x1="110.5" x2="110.5" y1="175.2" y2="177.6" /><text fill="black" font-family="serif" font-size="12.0" x="107.3" y="189.1">2</text><line stroke="black" stroke-width="1.2" x1="190.5" x2="190.5" y1="175.2" y2="177.6" /><text fill="black" font-family="serif" font-size="12.0" x="187.3" y="189.1">4</text><line stroke="black" stroke-width="1.2" x1="270.5" x2="270.5" y1="175.2" y2="177.6" /><text fill="black" font-family="serif" font-size="12.0" x="267.3" y="189.1">6</text><line stroke="black" stroke-width="1.2" x1="350.5" x2="350.5" y1="175.2" y2="177.6" /><text fill="black" font-family="serif" font-size="12.0" x="347.3" y="189.1">8</text><text fill="black" font-family="serif" font-size="9.600000000000001" x="430.0" y="189.1">time</text></svg>