<?xml version="1.0" encoding="utf-8" ?>
<svg baseProfile="full" height="100%" version="1.1" width="100%" xmlns="http://www.w3.org/2000/svg" xmlns:ev="http://www.w3.org/2001/xml-events" xmlns:xlink="http://www.w3.org/1999/xlink"><defs><marker id="arrow" markerHeight="10" markerUnits="strokeWidth" markerWidth="10" orient="auto" refX="1" refY="2"><path d="M0,0 L0,4 L2,2 z" fill="black" /></marker></defs><g class="node_a"><text fill="black" font-family="serif" font-size="18.0" x="12.0" y="47.2">a</text><rect fill="white" height="30" width="400.0" x="30.0" y="25.2" /><line stroke="black" stroke-dasharray="1 5" stroke-width="1" x1="230.0" x2="310.0" y1="40.2" y2="40.2" /><rect fill="#AEC7E8" fill-opacity="0.4" height="3" width="80.0" x="230.0" y="38.7" /></g><g class="node_b"><text fill="black" font-family="serif" font-size="18.0" x="12.0" y="84.7">b</text><rect fill="white" height="30" width="400.0" x="30.0" y="62.7" /><line stroke="black" stroke-dasharray="1 5" stroke-width="1" x1="30.0" x2="150.0" y1="77.7" y2="77.7" /><line stroke="black" stroke-dasharray="1 5" stroke-width="1" x1="230.0" x2="310.0" y1="77.7" y2="77.7" /><line stroke="black" stroke-dasharray="1 5" stroke-width="1" x1="350.0" x2="430.0" y1="77.7" y2="77.7" /><rect fill="#AEC7E8" fill-opacity="0.4" height="3" width="80.0" x="230.0" y="76.2" /><rect fill="#FF9896" fill-opacity="0.4" height="3" width="120.0" x="30.0" y="76.2" /><rect fill="#FF9896" fill-opacity="0.4" height="3" width="80.0" x="350.0" y="76.2" /></g><g class="node_c"><text fill="black" font-family="serif" font-size="18.0" x="12.0" y="122.2">c</text><rect fill="white" height="30" width="400.0" x="30.0" y="100.2" /><line stroke="black" stroke-dasharray="1 5" stroke-width="1" x1="30.0" x2="430.0" y1="115.2" y2="115.2" /><rect fill="#FF9896" fill-opacity="0.4" height="3" width="400.0" x="30.0" y="113.7" /></g><g class="node_d"><text fill="black" font-family="serif" font-size="18.0" x="12.0" y="159.7">d</text><rect fill="white" height="30" width="400.0" x="30.0" y="137.7" /><line stroke="black" stroke-dasharray="1 5" stroke-width="1" x1="30.0" x2="110.0" y1="152.7" y2="152.7" /><line stroke="black" stroke-dasharray="1 5" stroke-width="1" x1="150.0" x2="310.0" y1="152.7" y2="152.7" /><line stroke="black" stroke-dasharray="1 5" stroke-width="1" x1="350.0" x2="430.0" y1="152.7" y2="152.7" /><rect fill="#FF9896" fill-opacity="0.4" height="3" width="160.0" x="150.0" y="151.2" /><rect fill="#98DF8A" fill-opacity="0.4" height="3" width="80.0" x="30.0" y="151.2" /><rect fill="#98DF8A" fill-opacity="0.4" height="3" width="80.0" x="350.0" y="151.2" /></g><g class="node_e"><text fill="black" font-family="serif" font-size="18.0" x="12.0" y="197.2">e</text><rect fill="white" height="30" width="400.0" x="30.0" y="175.2" /><line stroke="black" stroke-dasharray="1 5" stroke-width="1" x1="30.0" x2="430.0" y1="190.2" y2="190.2" /><rect fill="#98DF8A" fill-opacity="0.4" height="3" width="400.0" x="30.0" y="188.7" /></g><g class="node_f"><text fill="black" font-family="serif" font-size="18.0" x="12.0" y="234.7">f</text><rect fill="white" height="30" width="400.0" x="30.0" y="212.7" /><line stroke="black" stroke-dasharray="1 5" stroke-width="1" x1="30.0" x2="190.0" y1="227.7" y2="227.7" /><line stroke="black" stroke-dasharray="1 5" stroke-width="1" x1="310.0" x2="430.0" y1="227.7" y2="227.7" /><rect fill="#98DF8A" fill-opacity="0.4" height="3" width="160.0" x="30.0" y="226.2" /><rect fill="#FFBB78" fill-opacity="0.4" height="3" width="120.0" x="310.0" y="226.2" /></g><g class="node_g"><text fill="black" font-family="serif" font-size="18.0" x="12.0" y="272.2">g</text><rect fill="white" height="30" width="400.0" x="30.0" y="250.2" /><line stroke="black" stroke-dasharray="1 5" stroke-width="1" x1="30.0" x2="190.0" y1="265.2" y2="265.2" /><line stroke="black" stroke-dasharray="1 5" stroke-width="1" x1="230.0" x2="430.0" y1="265.2" y2="265.2" /><rect fill="#98DF8A" fill-opacity="0.4" height="3" width="160.0" x="30.0" y="263.7" /><rect fill="#FFBB78" fill-opacity="0.4" height="3" width="200.0" x="230.0" y="263.7" /></g><g class="link_a_b"><circle cx="250.0" cy="40.2" fill="black" r="6.0" /><circle cx="250.0" cy="77.7" fill="black" r="6.0" /><line stroke="black" stroke-width="2" x1="250.0" x2="250.0" y1="40.2" y2="77.7" /><line stroke="black" stroke-width="2" x1="250.0" x2="290.0" y1="58.95" y2="58.95" /></g><g class="link_b_c"><circle cx="70.0" cy="77.7" fill="black" r="6.0" /><circle cx="70.0" cy="115.2" fill="black" r="6.0" /><line stroke="black" stroke-width="2" x1="70.0" x2="70.0" y1="77.7" y2="115.2" /><line stroke="black" stroke-width="2" x1="70.0" x2="150.0" y1="96.45" y2="96.45" /></g><g class="link_b_c"><circle cx="390.0" cy="77.7" fill="black" r="6.0" /><circle cx="390.0" cy="115.2" fill="black" r="6.0" /><line stroke="black" stroke-width="2" x1="390.0" x2="390.0" y1="77.7" y2="115.2" /><line stroke="black" stroke-width="2" x1="390.0" x2="430.0" y1="96.45" y2="96.45" /></g><g class="link_c_d"><circle cx="190.0" cy="115.2" fill="black" r="6.0" /><circle cx="190.0" cy="152.7" fill="black" r="6.0" /><line stroke="black" stroke-width="2" x1="190.0" x2="190.0" y1="115.2" y2="152.7" /><line stroke="black" stroke-width="2" x1="190.0" x2="270.0" y1="133.95" y2="133.95" /></g><g class="link_d_e"><circle cx="50.0" cy="152.7" fill="black" r="6.0" /><circle cx="50.0" cy="190.2" fill="black" r="6.0" /><line stroke="black" stroke-width="2" x1="50.0" x2="50.0" y1="152.7" y2="190.2" /><line stroke="black" stroke-width="2" x1="50.0" x2="90.0" y1="171.45" y2="171.45" /></g><g class="link_d_e"><circle cx="350.0" cy="152.7" fill="black" r="6.0" /><circle cx="350.0" cy="190.2" fill="black" r="6.0" /><line stroke="black" stroke-width="2" x1="350.0" x2="350.0" y1="152.7" y2="190.2" /><line stroke="black" stroke-width="2" x1="350.0" x2="430.0" y1="171.45" y2="171.45" /></g><g class="link_e_f"><circle cx="110.0" cy="190.2" fill="black" r="6.0" /><circle cx="110.0" cy="227.7" fill="black" r="6.0" /><line stroke="black" stroke-width="2" x1="110.0" x2="110.0" y1="190.2" y2="227.7" /><line stroke="black" stroke-width="2" x1="110.0" x2="190.0" y1="208.95" y2="208.95" /></g><g class="link_f_g"><circle cx="30.0" cy="227.7" fill="black" r="6.0" /><circle cx="30.0" cy="265.2" fill="black" r="6.0" /><line stroke="black" stroke-width="2" x1="30.0" x2="30.0" y1="227.7" y2="265.2" /><line stroke="black" stroke-width="2" x1="30.0" x2="110.0" y1="246.45" y2="246.45" /></g><g class="link_f_g"><circle cx="370.0" cy="227.7" fill="black" r="6.0" /><circle cx="370.0" cy="265.2" fill="black" r="6.0" /><line stroke="black" stroke-width="2" x1="370.0" x2="370.0" y1="227.7" y2="265.2" /><line stroke="black" stroke-width="2" x1="370.0" x2="410.0" y1="246.45" y2="246.45" /></g><line marker-end="url(#arrow)" stroke="black" stroke-width="1" x1="30.0" x2="430.0" y1="287.7" y2="287.7" /><line stroke="black" stroke-width="1.2" x1="30.5" x2="30.5" y1="287.7" y2="290.09999999999997" /><text fill="black" font-family="serif" font-size="12.0" x="27.3" y="301.59999999999997">0</text><line stroke="black" stroke-width="1.2" x1="110.5" x2="110.5" y1="287.7" y2="290.09999999999997" /><text fill="black" font-family="serif" font-size="12.0" x="107.3" y="301.59999999999997">2</text><line stroke="black" stroke-width="1.2" x1="190.5" x2="190.5" y1="287.7" y2="290.09999999999997" /><text fill="black" font-family="serif" font-size="12.0" x="187.3" y="301.59999999999997">4</text><line stroke="black" stroke-width="1.2" x1="270.5" x2="270.5" y1="287.7" y2="290.09999999999997" /><text fill="black" font-family="serif" font-size="12.0" x="267.3" y="301.59999999999997">6</text><line stroke="black" stroke-width="1.2" x1="350.5" x2="350.5" y1="287.7" y2="290.09999999999997" /><text fill="black" font-family="serif" font-size="12.0" x="347.3" y="301.59999999999997">8</text><text fill="black" font-family="serif" font-size="9.600000000000001" x="430.0" y="301.59999999999997">time</text></svg>